PathFileType	4	(X/Y/Z)	./resultDataOpenSim/trcMotMarkerGrf/sub09/qtm-01-02.trc
DataRate	CameraRate	NumFrames	NumMarkers	Units	OrigDataRate	OrigDataStartFrame	OrigNumFrames
250.000000	250.000000	13	24	m	250.000000	434	495
Frame#	Time	L.Toe.Tip			R.Toe.Tip			L.Ankle.Lat			R.Ankle.Lat			L.Ankle.Med			R.Ankle.Med			L.Heel			R.Heel			L.Knee.Lat			R.Knee.Lat			L.Knee.Med			R.Knee.Med			L.Thigh.Upper			R.Thigh.Upper			L.ASIS			R.ASIS			V.Sacral			L.Acromium			R.Acromium			C7			L.Elbow			R.Elbow			L.Wrist.Lat			R.Wrist.Lat
		X1	Y1	Z1	X2	Y2	Z2	X3	Y3	Z3	X4	Y4	Z4	X5	Y5	Z5	X6	Y6	Z6	X7	Y7	Z7	X8	Y8	Z8	X9	Y9	Z9	X10	Y10	Z10	X11	Y11	Z11	X12	Y12	Z12	X13	Y13	Z13	X14	Y14	Z14	X15	Y15	Z15	X16	Y16	Z16	X17	Y17	Z17	X18	Y18	Z18	X19	Y19	Z19	X20	Y20	Z20	X21	Y21	Z21	X22	Y22	Z22	X23	Y23	Z23	X24	Y24	Z24

434	1.732	1.6998689	0.11834638	0.015608683	0.99819619	0.039546415	0.13358024	1.5460379	0.08997174	-0.0079484715	0.85757748	0.083638558	0.16809561	1.5708812	0.11944669	0.083231841	0.88231956	0.12171469	0.079611934	1.5022434	0.030028363	0.047099432	0.78772553	0.081945954	0.11543327	1.4147097	0.48778689	-0.044021102	1.0878335	0.48023824	0.24080234	1.423503	0.48456688	0.0816622	1.0336525	0.49224327	0.12696189	1.2132516	0.85464212	-0.079972611	1.1573313	0.87876721	0.29143518	1.2822246	0.94865642	-0.016139117	1.2711525	0.95924283	0.22573954	1.1063432	0.99756415	0.087223077	1.223644	1.4017871	-0.076804855	1.2241408	1.4205525	0.25536479	1.1552787	1.4571826	0.090818387	1.0637129	1.0721903	-0.12853886	1.1447721	1.0565324	0.3611446	1.1691103	0.83349259	-0.17567068	1.3731602	0.90344486	0.32319994
435	1.736	1.7017375	0.11362648	0.017148994	0.99847873	0.039702283	0.13365033	1.5475322	0.087505819	-0.0068823814	0.85867536	0.085600611	0.1684527	1.5724459	0.11680264	0.084271149	0.88389225	0.12334374	0.08003394	1.5027915	0.028213093	0.048053178	0.78868889	0.084836826	0.11590237	1.4214376	0.48729247	-0.043770304	1.0959442	0.48025488	0.24210635	1.4307186	0.48457216	0.081486935	1.0389744	0.49138038	0.12745188	1.2196886	0.85414803	-0.080321678	1.1634321	0.87766886	0.29094876	1.2888552	0.94815537	-0.016418904	1.277211	0.95828904	0.22551811	1.1126634	0.99662195	0.086801258	1.2292171	1.4010505	-0.077212943	1.2292735	1.4197578	0.25496224	1.1605662	1.4562648	0.090346045	1.0697212	1.07124	-0.12888048	1.1497633	1.0557184	0.36033977	1.1750812	0.8325544	-0.17591793	1.3782062	0.90201072	0.32293106
436	1.74	1.7033871	0.10875149	0.018859797	0.9987589	0.039828039	0.13378628	1.5487912	0.085007162	-0.0058236592	0.85980725	0.087640877	0.16883381	1.5737261	0.11406749	0.085357428	0.88557573	0.12504942	0.080474685	1.5030562	0.026405092	0.048923196	0.78981184	0.087869353	0.11628788	1.4278889	0.48671413	-0.043423965	1.1045255	0.48001226	0.24247821	1.437832	0.48452173	0.081307453	1.0444347	0.4904653	0.12797395	1.2262931	0.85365631	-0.080608276	1.1696214	0.87662956	0.29043658	1.2956053	0.94767951	-0.016666719	1.283321	0.95736814	0.22530763	1.1190393	0.99569907	0.086315021	1.2348074	1.4003457	-0.077633947	1.2344083	1.4189849	0.25454384	1.1658604	1.455358	0.089851329	1.0757488	1.0703358	-0.12922068	1.1546308	1.0549008	0.35945917	1.1811014	0.831655	-0.1761667	1.3833107	0.90055758	0.32262517
437	1.744	1.704919	0.10361418	0.0207524	0.99903789	0.039918217	0.13400587	1.5498939	0.082542932	-0.0047782342	0.8609925	0.089759731	0.16925934	1.5747949	0.11129583	0.086515353	0.88737183	0.12683247	0.080939184	1.5030849	0.02474385	0.049651369	0.79109477	0.091036541	0.1166027	1.4341409	0.4860262	-0.043066207	1.1119382	0.47916402	0.2419804	1.4448251	0.48438645	0.081137363	1.0502036	0.48943928	0.12851531	1.2330683	0.85317603	-0.08085962	1.1758147	0.87563258	0.28991603	1.3024583	0.94722023	-0.01688433	1.2894933	0.95647532	0.22510869	1.1254685	0.99480956	0.085786433	1.2404165	1.3996693	-0.078072162	1.2395336	1.4182466	0.25411125	1.1711583	1.4544682	0.089337071	1.0818056	1.0694685	-0.12956677	1.1593981	1.0540863	0.35851613	1.1871691	0.83078979	-0.17641809	1.3882525	0.89908638	0.32238832
438	1.748	1.7065295	0.098184404	0.022751249	0.99932706	0.03999713	0.13428996	1.5510323	0.080263236	-0.003752315	0.86226812	0.091961052	0.16973985	1.5758802	0.10867091	0.087735483	0.8892922	0.12869067	0.08143443	1.5030415	0.023491324	0.050245954	0.79251517	0.094335835	0.1168984	1.4402511	0.48521659	-0.042813517	1.1179949	0.47798812	0.24134937	1.451654	0.48411829	0.080980247	1.0564088	0.48827068	0.12903438	1.2400202	0.85271988	-0.081121543	1.1821069	0.87460694	0.28934506	1.309372	0.94677369	-0.017071551	1.2957404	0.9556021	0.22491797	1.131956	0.9939787	0.085245569	1.2460436	1.3990163	-0.078529923	1.2446466	1.4175508	0.2536616	1.1764508	1.4536038	0.088807834	1.0878929	1.0686255	-0.12992249	1.1641637	1.0533205	0.35757186	1.1932832	0.82995643	-0.17667274	1.3927928	0.89760684	0.32233461
439	1.752	1.7085014	0.092562789	0.024710336	0.99963859	0.040102388	0.13458199	1.5524949	0.07839118	-0.0027841805	0.86365408	0.094245168	0.17027254	1.5773648	0.10644488	0.088926673	0.89135205	0.13061907	0.081969053	1.5031932	0.022954128	0.05075597	0.79406334	0.097766345	0.11721555	1.4461939	0.48430746	-0.042720354	1.1238088	0.47685529	0.24114357	1.4582617	0.48366103	0.080839815	1.0630011	0.48698391	0.12951657	1.2471578	0.85229648	-0.081428355	1.188796	0.87354672	0.28858427	1.3162868	0.94634918	-0.01721661	1.3020782	0.95474216	0.22473199	1.1384894	0.99323278	0.084700859	1.2516876	1.3983831	-0.079003383	1.2497497	1.4168932	0.25319281	1.1817249	1.4527731	0.088256042	1.0940052	1.0677984	-0.13028259	1.1690179	1.0526413	0.3566826	1.1994461	0.82915254	-0.17693005	1.3968932	0.89613544	0.32248035
440	1.756	1.711111	0.086942298	0.026491344	0.99997626	0.040258914	0.13480895	1.5545511	0.07711587	-0.0019656012	0.86515005	0.096605775	0.17086266	1.5796146	0.10476066	0.089928796	0.89355596	0.13261192	0.082553146	1.5037969	0.02330893	0.051196331	0.79574602	0.10132947	0.11758027	1.4519055	0.48336852	-0.042752031	1.1299302	0.47575891	0.24129737	1.4646223	0.48298756	0.080728673	1.0697769	0.48563721	0.12999963	1.2544841	0.85190848	-0.081784416	1.1962209	0.8725359	0.28747254	1.323146	0.94597115	-0.017300713	1.3085107	0.95389081	0.22454779	1.1450262	0.99259021	0.084138435	1.2573517	1.3977713	-0.079490336	1.2548402	1.4162659	0.2527108	1.1869658	1.4519988	0.087656679	1.1001382	1.0669877	-0.13064375	1.1739721	1.052041	0.35585169	1.2056601	0.82837483	-0.17718852	1.4007788	0.89468061	0.32271629
441	1.76	1.7144413	0.081570256	0.027993419	1.000337	0.040464585	0.13492513	1.5572951	0.076439321	-0.0014105274	0.86678244	0.099020992	0.17153971	1.5827183	0.10353819	0.090603405	0.8958929	0.13466378	0.083199707	1.5049591	0.024465617	0.05149101	0.79757472	0.10503003	0.11801916	1.4574302	0.48251303	-0.042839496	1.1354665	0.47454037	0.2415349	1.4707517	0.48213757	0.080659925	1.0765047	0.48428809	0.13054355	1.2619837	0.85155835	-0.082178349	1.2043411	0.87161754	0.28602921	1.3299169	0.9456665	-0.017319997	1.3150094	0.95304351	0.22436217	1.151514	0.99205978	0.083546745	1.263044	1.3971885	-0.079996963	1.2599085	1.4156691	0.25222731	1.1921619	1.4513141	0.086977864	1.106289	1.0661909	-0.13102322	1.1789685	1.0514848	0.35503921	1.2119228	0.82761995	-0.17744649	1.4047241	0.89323579	0.32291691
442	1.764	1.7182406	0.076723601	0.029127727	1.0007242	0.04070157	0.13494694	1.5605867	0.076148377	-0.0011895609	0.86866538	0.10147365	0.17232815	1.5863913	0.102569	0.090917431	0.89835072	0.13677298	0.083923485	1.5065912	0.026088812	0.05149931	0.79956066	0.10887507	0.11856046	1.4630203	0.48187421	-0.042955932	1.1393849	0.47321332	0.24187353	1.4766775	0.48122757	0.080628671	1.082953	0.48299442	0.13122321	1.2696164	0.85125752	-0.08260298	1.2124929	0.87071295	0.28454741	1.3365938	0.94544973	-0.017303606	1.321522	0.95220381	0.22417098	1.157922	0.9916438	0.082925197	1.2687689	1.3966442	-0.080531642	1.2649471	1.4151132	0.25175354	1.1973322	1.4507461	0.086221406	1.1124641	1.0653978	-0.13144015	1.1839286	1.0509558	0.35419997	1.2182299	0.82688517	-0.17770213	1.4088307	0.89178581	0.3230458
443	1.768	1.7220374	0.072569445	0.029854961	1.0011498	0.040954867	0.13494219	1.5641535	0.075971572	-0.0012930028	0.87102062	0.10399772	0.17323013	1.5901728	0.10170417	0.090934841	0.90093407	0.13894314	0.084734081	1.5084941	0.02777158	0.051126718	0.80171597	0.11287223	0.11922317	1.4690456	0.48157713	-0.043150615	1.1428059	0.47199739	0.24262764	1.4824201	0.48042151	0.080611868	1.0889008	0.4818177	0.13212962	1.277324	0.85103608	-0.083059916	1.2199091	0.86973055	0.28335661	1.3431852	0.94532538	-0.017303074	1.3280071	0.95139068	0.22396879	1.1642558	0.99133835	0.082286356	1.2745203	1.3961467	-0.081095094	1.2699555	1.4146144	0.25129771	1.2025666	1.450311	0.085468339	1.1186847	1.0646079	-0.13188215	1.1888033	1.0504694	0.35330848	1.2245818	0.8261716	-0.17795181	1.4130375	0.89032032	0.3231394
444	1.772	1.725451	0.068997628	0.030292085	1.0016179	0.041216573	0.13497938	1.5677473	0.075753251	-0.0016495135	0.87407623	0.10667846	0.17427567	1.5937156	0.10091665	0.090747851	0.90366756	0.14117641	0.085625985	1.5104704	0.029229233	0.05040989	0.80405626	0.11702802	0.11999941	1.4757524	0.48171855	-0.043509216	1.1490436	0.47124557	0.24400156	1.4879996	0.47987171	0.080587882	1.0942483	0.48080264	0.13331526	1.2850434	0.85094276	-0.083556956	1.2264569	0.86867954	0.28254394	1.3497028	0.94530279	-0.017359422	1.3344507	0.95062951	0.2237495	1.1705428	0.99112566	0.081661002	1.2802864	1.3957058	-0.081676974	1.2749384	1.4141906	0.25086461	1.2079793	1.4500055	0.084829191	1.1249728	1.0638444	-0.13231897	1.1935822	1.0500388	0.3523538	1.2309822	0.82548775	-0.17819069	1.4172414	0.88884287	0.32324017
445	1.776	1.7283616	0.065673226	0.03070213	1.0021154	0.041476482	0.13510506	1.5712044	0.075479884	-0.0021701037	0.87777524	0.10957818	0.17550854	1.5968713	0.10021341	0.090429239	0.9065838	0.14346755	0.08657251	1.5123631	0.03038022	0.049483899	0.80660327	0.12134626	0.12084362	1.4830713	0.48233421	-0.044054812	1.1598005	0.47112553	0.24569816	1.4934433	0.47966306	0.080545648	1.0991507	0.47994399	0.13473612	1.2927139	0.85102843	-0.084105956	1.2326074	0.86762166	0.28198938	1.3561542	0.94540154	-0.017482391	1.3408501	0.94993648	0.22350609	1.1768025	0.9909738	0.081084892	1.2860635	1.3953322	-0.082259966	1.279905	1.4138586	0.25045396	1.2135402	1.4498041	0.084282974	1.1313348	1.0631411	-0.13274407	1.1982534	1.0496362	0.35132281	1.2374308	0.82484833	-0.17841606	1.4213746	0.88736771	0.32336613
446	1.78	1.7307999	0.062246252	0.031284969	1.0026243	0.041715171	0.13536404	1.574404	0.075186771	-0.0027780212	0.88140449	0.11264499	0.17679302	1.5995956	0.099556025	0.09002602	0.90970364	0.14581245	0.087535339	1.5140395	0.031306059	0.048491145	0.80938596	0.12582708	0.12169151	1.4906795	0.48334751	-0.044676004	1.1725292	0.47124787	0.24714763	1.4987818	0.47979579	0.080473732	1.1041124	0.47914362	0.13623914	1.3002691	0.85132721	-0.084715826	1.2388353	0.86658874	0.28153935	1.3625437	0.94564134	-0.017663511	1.3471978	0.94931562	0.22322841	1.1830362	0.99085311	0.08057859	1.2918587	1.3950349	-0.082828224	1.2848694	1.4136285	0.25005607	1.2190331	1.4496743	0.083643591	1.137762	1.0625149	-0.13318689	1.2028178	1.0492308	0.35021975	1.2439241	0.8242682	-0.17862736	1.4254234	0.88591099	0.32351769
